<?xml version="1.0" standalone="no"?>
<!DOCTYPE svg PUBLIC "-//W3C//DTD SVG 20010904//EN"
 "http://www.w3.org/TR/2001/REC-SVG-20010904/DTD/svg10.dtd">
<svg version="1.0" xmlns="http://www.w3.org/2000/svg"
 width="1501.000000pt" height="1501.000000pt" viewBox="0 0 1501.000000 1501.000000"
 preserveAspectRatio="xMidYMid meet">

<g transform="translate(0.000000,1501.000000) scale(0.100000,-0.100000)"
fill="#000000" stroke="none">
<path d="M9100 10218 l-534 -548 -1057 0 -1058 0 -532 545 c-293 300 -534 545
-536 545 -2 0 -2 -3 0 -7 2 -5 149 -347 328 -760 l324 -752 542 -3 543 -3
-539 -850 -539 -850 -331 -3 -331 -2 0 -215 0 -215 329 0 329 0 15 -67 c9 -38
140 -583 291 -1212 152 -629 276 -1147 276 -1151 0 -3 53 -103 118 -221 l119
-214 641 -3 641 -2 126 212 126 211 285 1186 c156 652 289 1203 295 1224 l10
37 329 0 330 0 0 215 0 215 -332 0 -333 1 -535 845 c-294 465 -536 849 -538
854 -2 6 209 11 538 12 l542 3 329 759 c181 418 328 760 326 761 -1 1 -243
-245 -537 -547z m-1066 -2048 l517 -635 -1037 -3 c-571 -1 -1039 0 -1041 2 -7
6 1029 1277 1037 1274 5 -2 240 -289 524 -638z m521 -1082 c-2 -7 -151 -548
-330 -1203 -179 -654 -328 -1198 -331 -1208 -5 -16 -30 -17 -387 -15 l-382 3
-332 1210 c-182 666 -332 1213 -332 1218 -1 4 471 7 1049 7 835 0 1048 -3
1045 -12z"/>
<path d="M7187 8104 c-170 -229 -306 -418 -304 -420 2 -2 286 -3 630 -2 l626
3 -315 415 c-173 228 -319 416 -323 418 -4 1 -145 -185 -314 -414z"/>
<path d="M6862 6858 c3 -13 105 -474 229 -1025 l224 -1003 192 0 c191 0 193 0
198 23 8 34 435 2019 435 2023 0 2 -289 4 -641 4 l-641 0 4 -22z"/>
</g>
</svg>
